<?xml version="1.0" standalone="no"?>
<!DOCTYPE svg PUBLIC "-//W3C//DTD SVG 20010904//EN"
 "http://www.w3.org/TR/2001/REC-SVG-20010904/DTD/svg10.dtd">
<svg version="1.0" xmlns="http://www.w3.org/2000/svg"
 width="2072.000000pt" height="680.000000pt" viewBox="0 0 2072.000000 680.000000"
 preserveAspectRatio="xMidYMid meet">
<metadata>
Created by potrace 1.15, written by Peter Selinger 2001-2017
</metadata>
<g transform="translate(0.000000,680.000000) scale(0.100000,-0.100000)"
fill="#000000" stroke="none">
<path d="M2236 5871 c-3 -5 -23 -11 -43 -14 -80 -11 -209 -38 -228 -47 -18 -8
-72 -24 -182 -53 -24 -7 -43 -15 -43 -19 0 -5 17 -16 38 -26 20 -9 43 -21 51
-27 32 -24 131 -119 131 -126 0 -4 10 -19 23 -32 12 -13 31 -35 41 -50 10 -15
25 -27 33 -27 7 0 17 -8 20 -17 4 -10 24 -36 44 -58 132 -140 189 -202 189
-207 0 -3 19 -25 43 -49 23 -24 48 -54 56 -66 8 -12 23 -24 33 -26 10 -3 21
-13 25 -24 3 -10 24 -34 45 -54 21 -20 38 -39 38 -44 0 -4 59 -69 130 -145 72
-75 130 -140 130 -144 0 -4 29 -36 65 -71 36 -35 65 -66 65 -70 0 -8 24 -35
153 -170 37 -39 67 -75 67 -78 0 -4 41 -47 90 -95 50 -49 90 -92 90 -96 0 -10
24 -38 124 -142 44 -45 83 -89 88 -97 4 -9 44 -51 88 -94 44 -43 80 -84 80
-90 0 -7 11 -20 25 -29 32 -21 45 -69 45 -165 0 -91 -7 -106 -83 -182 -31 -31
-57 -60 -57 -65 0 -4 -29 -35 -65 -70 -36 -34 -65 -65 -65 -69 0 -3 -23 -31
-51 -62 -116 -129 -167 -184 -211 -232 -27 -27 -48 -54 -48 -58 0 -4 -27 -33
-59 -64 -33 -31 -61 -61 -63 -66 -1 -5 -28 -35 -58 -67 -30 -32 -55 -61 -55
-65 0 -4 -21 -27 -47 -52 -27 -25 -48 -49 -48 -55 0 -5 -22 -30 -50 -56 -27
-26 -50 -50 -50 -53 0 -6 -73 -87 -185 -205 -25 -26 -45 -51 -45 -55 0 -4 -18
-25 -40 -46 -22 -20 -40 -41 -40 -45 0 -5 -33 -41 -74 -80 -40 -39 -71 -73
-69 -75 5 -5 -35 -50 -144 -163 -46 -47 -83 -89 -83 -94 0 -5 -11 -17 -25 -28
-14 -11 -25 -23 -25 -27 0 -3 -15 -21 -32 -40 -71 -71 -105 -111 -111 -127 -4
-10 -11 -18 -17 -18 -5 0 -10 -6 -10 -13 0 -15 87 -38 230 -63 47 -8 99 -19
116 -24 39 -13 637 -13 678 -1 17 6 69 16 116 24 47 8 114 22 150 31 76 20
294 93 330 111 14 7 52 26 85 41 259 121 495 289 700 498 144 147 239 271 363
474 36 59 162 321 162 337 0 4 6 21 14 38 20 46 63 191 82 272 47 206 48 219
48 560 -1 315 -9 432 -34 490 -5 11 -12 40 -16 65 -3 25 -17 78 -30 119 -13
40 -24 78 -24 83 0 5 -9 29 -20 54 -11 24 -23 58 -27 74 -3 17 -9 30 -13 30
-4 0 -11 12 -15 28 -15 61 -149 307 -230 421 -183 259 -440 503 -710 674 -84
54 -291 161 -345 178 -19 6 -39 15 -45 19 -5 5 -37 16 -70 25 -33 10 -67 22
-75 26 -30 17 -264 73 -358 86 -23 3 -45 10 -48 14 -7 12 -651 12 -658 0z"/>
<path d="M5750 5340 l0 -140 320 0 320 0 0 -830 0 -830 160 0 160 0 0 830 0
830 325 0 325 0 0 140 0 140 -805 0 -805 0 0 -140z"/>
<path d="M8698 4990 c-82 -13 -174 -38 -243 -66 -86 -35 -205 -105 -205 -121
0 -15 88 -193 95 -193 2 0 30 17 62 37 78 50 195 99 270 113 90 18 226 9 289
-19 111 -48 165 -140 172 -290 l5 -94 -24 7 c-172 51 -407 64 -549 31 -178
-41 -332 -154 -379 -279 -97 -260 61 -539 337 -597 93 -19 252 -7 352 27 94
31 208 102 263 163 19 22 38 37 41 33 3 -3 6 -22 6 -42 0 -49 38 -120 78 -147
43 -28 98 -37 188 -28 l74 7 0 133 0 133 -29 12 c-18 7 -34 24 -40 42 -7 19
-11 148 -11 342 0 234 -4 328 -15 380 -43 205 -177 342 -390 398 -81 21 -265
31 -347 18z m357 -791 l80 -24 3 -99 c2 -59 -2 -111 -9 -127 -17 -43 -123
-137 -182 -164 -243 -107 -487 -10 -487 195 0 113 63 186 200 232 80 26 283
20 395 -13z"/>
<path d="M11648 4990 c-82 -13 -174 -38 -243 -66 -86 -35 -205 -105 -205 -121
0 -15 88 -193 95 -193 2 0 30 17 62 37 78 50 195 99 270 113 90 18 226 9 289
-19 111 -48 165 -140 172 -290 l5 -94 -24 7 c-172 51 -407 64 -549 31 -178
-41 -332 -154 -379 -279 -97 -260 61 -539 337 -597 93 -19 252 -7 352 27 94
31 208 102 263 163 19 22 38 37 41 33 3 -3 6 -22 6 -42 0 -49 38 -120 78 -147
43 -28 98 -37 188 -28 l74 7 0 133 0 133 -29 12 c-18 7 -34 24 -40 42 -7 19
-11 148 -11 342 0 234 -4 328 -15 380 -43 205 -177 342 -390 398 -81 21 -265
31 -347 18z m357 -791 l80 -24 3 -99 c2 -59 -2 -111 -9 -127 -17 -43 -123
-137 -182 -164 -243 -107 -487 -10 -487 195 0 113 63 186 200 232 80 26 283
20 395 -13z"/>
<path d="M13495 4990 c-171 -27 -340 -124 -427 -244 l-28 -39 0 131 0 132
-140 0 -140 0 0 -720 0 -720 155 0 155 0 0 436 0 436 33 61 c120 226 407 329
541 193 84 -84 95 -169 96 -733 l0 -393 155 0 155 0 0 438 c0 240 -5 491 -11
557 -27 313 -150 457 -397 470 -48 2 -114 0 -147 -5z"/>
<path d="M14905 4989 c-292 -43 -524 -247 -595 -524 -41 -162 -35 -323 19
-475 38 -107 83 -180 166 -265 80 -82 175 -141 290 -182 75 -26 90 -28 245
-27 152 0 171 2 245 27 107 36 195 89 270 163 54 54 127 167 115 177 -3 2 -70
23 -150 46 l-144 43 -15 -23 c-29 -46 -99 -107 -153 -132 -155 -73 -317 -46
-444 75 -242 229 -186 664 104 801 61 29 76 32 162 32 88 0 101 -3 162 -33 47
-23 84 -51 122 -93 l54 -60 146 46 c80 26 146 51 146 56 0 21 -71 119 -123
170 -152 148 -380 213 -622 178z"/>
<path d="M16420 4991 c-446 -64 -717 -490 -600 -945 50 -197 191 -372 370
-460 114 -56 207 -76 343 -76 129 0 221 20 322 69 199 95 326 245 387 456 19
68 23 103 23 225 -1 138 -2 150 -34 242 -64 188 -187 331 -356 414 -49 24
-117 51 -150 59 -73 18 -230 27 -305 16z m273 -299 c157 -73 257 -245 257
-442 0 -343 -309 -570 -589 -433 -72 34 -159 122 -194 195 -74 155 -74 312 0
467 102 215 328 306 526 213z"/>
<path d="M19040 4993 c-138 -18 -282 -78 -382 -158 -107 -86 -197 -229 -240
-382 -31 -111 -31 -296 1 -407 37 -133 93 -229 191 -326 94 -94 172 -142 300
-182 65 -20 95 -23 230 -23 135 0 165 3 230 23 114 36 207 89 286 165 63 59
138 168 124 180 -3 2 -61 20 -130 39 l-125 36 -15 -21 c-94 -136 -235 -206
-389 -194 -204 15 -345 151 -395 380 l-6 27 575 0 575 0 0 113 c0 300 -139
531 -395 657 -44 22 -107 47 -140 55 -62 16 -234 27 -295 18z m225 -248 c88
-25 178 -94 232 -179 29 -45 63 -138 63 -173 l0 -23 -421 0 -422 0 7 46 c9 69
62 171 118 226 53 54 151 105 225 118 56 10 128 4 198 -15z"/>
<path d="M7923 4975 c-129 -28 -274 -137 -342 -256 l-31 -54 0 153 0 152 -140
0 -140 0 0 -720 0 -720 155 0 155 0 0 448 0 448 29 46 c16 25 48 64 72 87 76
74 246 140 357 141 l43 0 -3 143 -3 142 -45 2 c-25 1 -73 -4 -107 -12z"/>
<path d="M18193 4975 c-129 -28 -274 -137 -342 -256 l-31 -54 0 153 0 152
-140 0 -140 0 0 -720 0 -720 155 0 155 0 0 448 0 448 29 46 c16 25 48 64 72
87 76 74 246 140 357 141 l43 0 -3 143 -3 142 -45 2 c-25 1 -73 -4 -107 -12z"/>
<path d="M9624 4953 c4 -10 127 -333 275 -718 l268 -700 165 -3 165 -2 267
699 c147 385 270 709 273 721 5 20 3 20 -142 18 l-147 -3 -201 -572 c-110
-315 -203 -571 -205 -568 -2 2 -93 259 -202 572 l-198 568 -162 3 c-151 2
-161 1 -156 -15z"/>
<path d="M635 4912 c-52 -71 -125 -183 -125 -192 0 -6 -4 -10 -9 -10 -4 0 -41
-66 -80 -147 -40 -82 -76 -156 -82 -165 -11 -22 -12 -68 0 -68 9 0 29 -21 181
-185 50 -55 100 -109 111 -120 10 -12 19 -24 19 -27 0 -6 43 -53 223 -242 48
-51 87 -95 87 -99 0 -4 16 -21 35 -38 19 -17 33 -35 30 -39 -3 -5 6 -17 20
-28 13 -11 22 -22 18 -25 -3 -3 2 -14 12 -23 14 -14 16 -31 13 -92 -2 -48 -8
-77 -16 -80 -7 -2 -10 -7 -7 -12 3 -5 -7 -18 -21 -29 -15 -12 -23 -21 -20 -21
4 0 -15 -25 -43 -57 -28 -31 -48 -60 -45 -65 3 -4 0 -8 -6 -8 -15 0 -126 -110
-122 -122 1 -5 -5 -11 -13 -14 -8 -4 -15 -11 -15 -17 0 -6 -39 -52 -87 -102
-49 -50 -97 -104 -108 -119 -11 -15 -27 -34 -35 -42 -8 -7 -35 -33 -60 -57
-50 -48 -83 -87 -73 -87 4 0 -9 -16 -27 -35 -22 -23 -31 -38 -24 -43 6 -4 19
-28 29 -54 10 -27 22 -48 26 -48 5 0 9 -5 9 -11 0 -41 264 -439 292 -439 9 0
88 79 88 89 0 4 29 36 65 70 36 35 65 66 65 70 0 4 16 22 35 41 19 19 35 38
35 43 0 4 34 42 75 82 41 41 75 79 75 84 0 5 10 18 23 28 12 10 27 28 33 38 6
11 25 29 42 40 17 11 31 24 32 29 0 5 23 34 51 65 146 161 170 189 196 220 15
19 66 75 113 125 47 50 94 104 105 120 11 17 52 62 90 102 39 40 84 92 100
114 17 23 47 55 68 72 20 16 37 34 37 40 0 6 -43 57 -95 113 -52 57 -95 105
-95 108 0 5 -94 106 -222 238 -49 50 -88 95 -88 101 0 5 -14 21 -30 35 -17 14
-29 28 -26 30 2 2 -31 39 -75 81 -43 42 -79 80 -79 85 0 4 -18 25 -40 47 -22
22 -40 44 -40 50 0 5 -18 22 -40 36 -22 15 -40 32 -40 38 0 7 -18 29 -40 51
-22 21 -38 40 -36 42 2 2 -32 38 -75 80 -44 42 -79 81 -79 86 0 4 -18 25 -40
46 -22 20 -40 43 -40 49 0 7 -7 12 -15 12 -8 0 -13 6 -11 13 4 12 -165 177
-181 177 -4 0 -17 -13 -28 -28z"/>
<path d="M8830 2170 l0 -720 85 0 85 0 0 85 0 84 47 -50 c30 -32 73 -63 122
-87 74 -37 77 -37 196 -37 120 0 122 0 197 37 186 92 300 303 284 524 -15 210
-122 380 -286 458 -60 29 -73 31 -175 31 -105 0 -114 -2 -179 -34 -42 -21 -91
-56 -127 -92 l-59 -59 0 290 0 290 -95 0 -95 0 0 -720z m625 141 c181 -87 259
-327 167 -514 -104 -211 -351 -264 -520 -112 -77 69 -82 87 -82 273 l0 160 36
53 c100 152 259 208 399 140z"/>
<path d="M6240 2155 l0 -695 95 0 95 0 0 310 0 310 375 0 375 0 0 -315 0 -315
90 0 90 0 0 700 0 700 -90 0 -90 0 0 -300 0 -300 -375 0 -375 0 0 300 0 300
-95 0 -95 0 0 -695z"/>
<path d="M10560 2150 l0 -700 95 0 95 0 2 521 3 521 221 -393 222 -394 53 -3
54 -3 225 402 225 401 3 -526 2 -526 90 0 90 0 0 700 0 701 -96 -3 -96 -3
-248 -443 -248 -443 -248 446 -248 445 -98 0 -98 0 0 -700z"/>
<path d="M14570 2650 l0 -170 -70 0 -70 0 0 -70 0 -70 70 0 70 0 0 -357 c0
-216 4 -373 10 -395 14 -49 52 -94 104 -120 59 -32 185 -31 281 0 105 34 101
29 76 111 -12 39 -23 71 -24 71 -2 0 -28 -9 -60 -20 -68 -24 -108 -25 -148 -4
-56 28 -59 51 -59 399 l0 315 115 0 115 0 0 70 0 70 -115 0 -115 0 0 170 0
170 -90 0 -90 0 0 -170z"/>
<path d="M15929 2797 c-37 -13 -85 -36 -108 -51 -91 -64 -156 -198 -168 -346
l-6 -80 91 0 91 0 6 48 c20 151 58 221 145 265 50 26 63 28 141 25 75 -3 92
-7 134 -33 72 -45 110 -118 110 -210 0 -59 -5 -79 -30 -123 -37 -68 -92 -111
-269 -214 -77 -44 -166 -98 -196 -118 -67 -46 -151 -133 -178 -186 -32 -63
-62 -173 -69 -251 l-6 -73 472 0 471 0 0 85 0 85 -371 0 -370 0 6 23 c13 43
77 126 129 166 29 23 122 80 207 127 246 137 321 199 370 303 70 150 35 350
-83 470 -82 82 -168 111 -338 111 -93 0 -128 -5 -181 -23z"/>
<path d="M17031 2804 c-87 -31 -161 -94 -215 -182 -37 -59 -82 -201 -97 -301
-17 -124 -6 -414 20 -511 46 -168 132 -290 248 -347 55 -26 65 -28 188 -28
127 0 132 1 196 32 40 20 85 53 113 83 54 58 115 181 139 281 25 100 40 291
32 404 -21 296 -109 470 -275 549 -60 28 -75 31 -185 33 -90 2 -131 -1 -164
-13z m290 -179 c84 -59 127 -196 136 -430 10 -264 -22 -433 -99 -520 -53 -60
-105 -84 -181 -85 -130 0 -212 88 -254 275 -23 101 -23 402 1 509 32 145 80
226 159 265 34 18 56 21 119 19 66 -3 82 -7 119 -33z"/>
<path d="M18276 2808 c-35 -114 -65 -161 -120 -187 -47 -23 -162 -51 -213 -51
l-33 0 0 -75 0 -75 160 0 160 0 0 -485 0 -485 100 0 100 0 0 685 0 685 -75 0
c-52 0 -77 -4 -79 -12z"/>
<path d="M19185 2806 c-127 -40 -224 -136 -271 -269 -42 -117 -35 -285 15
-392 70 -151 196 -225 383 -226 134 0 201 23 276 95 l44 41 -7 -40 c-48 -294
-146 -425 -320 -425 -118 0 -215 79 -215 176 0 24 -1 24 -96 24 l-97 0 7 -47
c18 -131 86 -227 198 -279 60 -28 70 -29 203 -29 135 0 142 1 200 29 170 84
279 301 306 611 16 195 -9 381 -71 510 -79 165 -202 236 -407 234 -59 0 -126
-6 -148 -13z m263 -162 c47 -19 98 -68 125 -119 26 -50 35 -184 17 -262 -25
-112 -126 -183 -261 -183 -126 0 -201 51 -239 165 -20 58 -18 179 4 244 22 65
93 141 146 158 53 17 165 15 208 -3z"/>
<path d="M12560 2489 c-76 -15 -190 -77 -251 -139 -100 -99 -149 -225 -149
-379 0 -160 41 -269 141 -375 100 -108 218 -156 379 -156 151 0 259 40 358
133 53 51 99 122 84 130 -4 2 -38 12 -76 22 l-69 19 -21 -30 c-50 -70 -125
-115 -216 -132 -175 -33 -357 102 -386 286 l-7 42 422 0 421 0 0 84 c0 143
-48 259 -150 362 -117 118 -299 168 -480 133z m262 -161 c95 -44 175 -148 194
-250 l6 -38 -340 0 -340 0 12 53 c29 122 113 215 229 253 64 21 172 13 239
-18z"/>
<path d="M13710 2489 c-76 -15 -190 -77 -251 -139 -100 -99 -149 -225 -149
-379 0 -160 41 -269 141 -375 100 -108 218 -156 379 -156 151 0 259 40 358
133 53 51 99 122 84 130 -4 2 -38 12 -76 22 l-69 19 -21 -30 c-50 -70 -125
-115 -216 -132 -175 -33 -357 102 -386 286 l-7 42 422 0 421 0 0 84 c0 143
-48 259 -150 362 -117 118 -299 168 -480 133z m262 -161 c95 -44 175 -148 194
-250 l6 -38 -340 0 -340 0 12 53 c29 122 113 215 229 253 64 21 172 13 239
-18z"/>
<path d="M7640 2162 c0 -454 16 -549 109 -642 60 -60 118 -80 231 -80 147 0
254 45 352 148 l56 58 4 -61 c9 -101 45 -135 147 -135 l61 0 0 79 c0 73 -2 80
-25 95 l-25 16 0 420 0 420 -90 0 -90 0 0 -316 0 -316 -32 -60 c-88 -166 -298
-244 -421 -156 -16 12 -41 46 -56 77 l-26 56 -3 358 -3 357 -94 0 -95 0 0
-318z"/>
</g>
</svg>
